<svg width="30" height="30" viewBox="0 0 30 30" fill="none" xmlns="http://www.w3.org/2000/svg">
<path d="M15.6762 14.0523C15.3686 14.2859 15.0764 14.5392 14.8017 14.8107C13.1511 16.4629 12.135 18.6436 11.9318 20.9701C11.9252 21.0477 11.8897 21.1199 11.8323 21.1725C11.7749 21.225 11.6998 21.254 11.622 21.2537H0.6274C0.535612 21.2541 0.444864 21.2343 0.361612 21.1957C0.27836 21.157 0.204649 21.1005 0.145723 21.0301C0.0867973 20.9597 0.0441045 20.8772 0.0206817 20.7885C-0.00274118 20.6997 -0.00631841 20.6069 0.0102044 20.5166C0.113903 19.9819 0.191365 19.4921 0.260081 19.0436C0.574926 17.0346 0.803563 15.5928 2.39278 14.9106L7.31035 12.8029C7.36646 12.7787 7.41423 12.7386 7.44777 12.6875C7.4813 12.6364 7.49912 12.5767 7.49901 12.5156V11.1137C7.49944 11.0707 7.49089 11.028 7.47389 10.9884C7.4569 10.9488 7.43184 10.9132 7.40031 10.8839C6.71537 10.1454 6.33781 9.17361 6.34458 8.16645C6.34112 8.11737 6.32606 8.06981 6.30065 8.02767C6.27524 7.98554 6.2402 7.95003 6.1984 7.92407C5.93533 7.73724 5.72405 7.48662 5.5844 7.19574C5.44475 6.90486 5.38132 6.58326 5.40005 6.26114C5.39145 5.83738 5.50509 5.42011 5.72738 5.05924C5.78642 4.96945 5.85422 4.88575 5.92978 4.80936C5.97544 4.7627 6.0054 4.70295 6.01548 4.63844C6.02556 4.57394 6.01525 4.5079 5.98601 4.44954C5.63493 3.74863 5.30259 2.90155 5.76611 2.2856C5.90329 2.12434 6.07668 1.99782 6.27211 1.91639C6.46754 1.83496 6.67946 1.80093 6.89056 1.81708C6.94376 1.817 6.99607 1.80343 7.04261 1.77765C7.08914 1.75187 7.12839 1.71471 7.15668 1.66966C7.6364 1.09951 8.24513 0.651933 8.93238 0.364038C9.61964 0.0761424 10.3656 -0.0437764 11.1085 0.0142242C12.7989 0.0142242 14.9266 0.63017 15.3601 2.36431C15.5513 3.08364 15.4822 3.84736 15.1652 4.52075C15.1406 4.57437 15.1315 4.63385 15.139 4.69239C15.1465 4.75093 15.1703 4.80618 15.2077 4.85184C15.4823 5.21609 15.6222 5.66419 15.6038 6.11996C15.6183 6.44209 15.5661 6.76375 15.4504 7.06475C15.3347 7.36575 15.1581 7.63959 14.9316 7.8691C14.8994 7.89646 14.8731 7.93003 14.8542 7.96782C14.8353 8.00561 14.8242 8.04682 14.8216 8.08899C14.8517 9.10629 14.5051 10.0989 13.8484 10.8764C13.8192 10.9053 13.796 10.9398 13.7801 10.9777C13.7642 11.0157 13.756 11.0564 13.7559 11.0975V12.5143C13.7561 12.5755 13.7741 12.6353 13.8079 12.6864C13.8416 12.7375 13.8896 12.7775 13.9458 12.8017L15.6138 13.5163C15.6639 13.5383 15.7075 13.5728 15.7403 13.6166C15.7732 13.6604 15.7941 13.7119 15.8012 13.7662C15.8073 13.8206 15.7989 13.8758 15.777 13.926C15.7551 13.9762 15.7203 14.0198 15.6762 14.0523Z"/>
<path fill-rule="evenodd" clip-rule="evenodd" d="M19.6508 14.0631C20.984 13.684 22.3919 13.6516 23.741 13.9691C25.2133 14.3051 26.5609 15.0498 27.6289 16.1175C28.6968 17.1852 29.4418 18.5327 29.778 20.0049C30.0614 21.1995 30.0701 22.4429 29.8037 23.6414C29.5373 24.8399 29.0025 25.9624 28.2397 26.9245C27.4769 27.8865 26.5059 28.6631 25.3997 29.1958C24.2935 29.7285 23.081 30.0035 21.8532 30C21.2272 29.9991 20.6033 29.9287 19.9929 29.7901C18.5203 29.4541 17.1725 28.7093 16.1046 27.6413C15.0366 26.5734 14.2918 25.2256 13.9558 23.753C13.6385 22.4039 13.671 20.996 14.0504 19.6629C14.4297 18.3298 15.1433 17.1157 16.1234 16.1357C17.1035 15.1557 18.3177 14.4423 19.6508 14.0631ZM19.2295 26.8528C19.6422 27.0787 20.0841 27.2469 20.5426 27.3525L20.5463 27.3488C21.4841 27.5736 22.4639 27.5542 23.392 27.2923C24.3201 27.0304 25.1656 26.5349 25.8475 25.8531C26.5295 25.1712 27.0252 24.3259 27.2872 23.3978C27.5493 22.4697 27.5689 21.49 27.3442 20.5521C27.2384 20.0937 27.0702 19.6519 26.8445 19.239C26.8215 19.1955 26.7886 19.158 26.7483 19.1296C26.7081 19.1012 26.6618 19.0827 26.613 19.0757C26.5643 19.0686 26.5146 19.0731 26.468 19.0889C26.4214 19.1047 26.3791 19.1313 26.3447 19.1666L19.157 26.353C19.122 26.3875 19.0957 26.4298 19.08 26.4764C19.0644 26.523 19.0599 26.5726 19.067 26.6212C19.074 26.6698 19.0924 26.7161 19.1206 26.7564C19.1489 26.7966 19.1861 26.8296 19.2295 26.8528ZM23.19 16.4017C22.7627 16.3056 22.3261 16.257 21.8882 16.2568C21.0347 16.2518 20.1912 16.4412 19.4218 16.8107C18.6524 17.1802 17.9772 17.72 17.4474 18.3892C16.9176 19.0584 16.5471 19.8395 16.3641 20.6731C16.181 21.5068 16.1902 22.3712 16.3909 23.2008C16.4968 23.6605 16.6649 24.1035 16.8906 24.5177C16.9136 24.5612 16.9466 24.5987 16.9868 24.6271C17.027 24.6555 17.0734 24.674 17.1221 24.681C17.1708 24.6881 17.2205 24.6836 17.2671 24.6678C17.3138 24.652 17.356 24.6254 17.3904 24.5901L24.5781 17.4012C24.6131 17.3667 24.6394 17.3244 24.6551 17.2778C24.6707 17.2312 24.6752 17.1816 24.6681 17.133C24.6611 17.0844 24.6427 17.0381 24.6145 16.9978C24.5863 16.9576 24.549 16.9246 24.5056 16.9014C24.0919 16.6757 23.6493 16.5076 23.19 16.4017Z"/>
</svg>
