<svg width="31" height="30" viewBox="0 0 31 30" fill="none" xmlns="http://www.w3.org/2000/svg">
<path d="M14.7399 14.8925C14.7766 14.8553 14.8033 14.8095 14.8176 14.7592C14.8318 14.709 14.8333 14.656 14.8217 14.6051C14.8101 14.5541 14.7859 14.507 14.7513 14.4678C14.7167 14.4287 14.6728 14.3989 14.6237 14.3813L14.3449 14.2788C14.1574 14.2106 13.9954 14.0866 13.8807 13.9234C13.766 13.7602 13.7042 13.5657 13.7037 13.3663V12.7825C13.7037 12.6996 13.7366 12.6201 13.7952 12.5615C13.8538 12.5029 13.9333 12.47 14.0162 12.47C15.673 12.6002 17.329 12.209 18.7524 11.3513C18.8135 11.3139 18.8655 11.2636 18.9049 11.2038C18.9442 11.144 18.9697 11.0762 18.9798 11.0054C18.9898 10.9345 18.9841 10.8623 18.9629 10.794C18.9417 10.7256 18.9057 10.6628 18.8574 10.61C18.2399 9.93875 17.8137 9.12875 17.6312 6.46375C17.2999 1.6825 14.0474 0 11.2524 0C8.45742 0 5.20367 1.6825 4.87742 6.46375C4.69617 9.12875 4.26867 9.93875 3.65117 10.61C3.6027 10.6625 3.56644 10.7252 3.545 10.7934C3.52355 10.8616 3.51745 10.9337 3.52713 11.0045C3.5368 11.0753 3.56202 11.1431 3.60097 11.2031C3.63991 11.263 3.69163 11.3136 3.75242 11.3513C5.17182 12.2114 6.82522 12.6049 8.47992 12.4762C8.52132 12.4756 8.56244 12.4832 8.60086 12.4986C8.63929 12.514 8.67425 12.537 8.7037 12.5661C8.73315 12.5952 8.7565 12.6299 8.77238 12.6681C8.78825 12.7063 8.79635 12.7473 8.79617 12.7887V13.3663C8.79589 13.5656 8.73434 13.7601 8.61987 13.9233C8.50539 14.0865 8.34352 14.2106 8.15617 14.2788C7.84897 14.3916 7.54704 14.5017 7.25128 14.6095C4.05714 15.774 1.5827 16.6762 0.951174 17.9312C0.429666 19.0019 0.108138 20.1588 0.00242446 21.345C-0.00439685 21.4128 0.00321546 21.4813 0.0247604 21.5459C0.0463053 21.6105 0.0812942 21.6699 0.127424 21.72C0.173973 21.7695 0.230125 21.809 0.292452 21.8361C0.354778 21.8632 0.42197 21.8773 0.489924 21.8775H11.5699C11.6511 21.8775 11.7291 21.846 11.7874 21.7895C11.8458 21.7331 11.8798 21.6561 11.8824 21.575C11.9586 19.067 12.9792 16.6802 14.7399 14.8925Z"/>
<path d="M23.4395 20.625H24.377C24.7085 20.625 25.0264 20.7567 25.2608 20.9911C25.4953 21.2255 25.627 21.5435 25.627 21.875C25.627 22.2065 25.4953 22.5245 25.2608 22.7589C25.0264 22.9933 24.7085 23.125 24.377 23.125H21.877C21.5454 23.125 21.2275 22.9933 20.9931 22.7589C20.7586 22.5245 20.627 22.2065 20.627 21.875V19.0625C20.627 18.731 20.7586 18.413 20.9931 18.1786C21.2275 17.9442 21.5454 17.8125 21.877 17.8125C22.2085 17.8125 22.5264 17.9442 22.7608 18.1786C22.9953 18.413 23.127 18.731 23.127 19.0625V20.3125C23.127 20.3954 23.1599 20.4749 23.2185 20.5335C23.2771 20.5921 23.3566 20.625 23.4395 20.625Z"/>
<path fill-rule="evenodd" clip-rule="evenodd" d="M21.8769 13.75C20.2699 13.75 18.699 14.2265 17.3629 15.1193C16.0267 16.0121 14.9853 17.281 14.3704 18.7657C13.7554 20.2503 13.5945 21.884 13.908 23.4601C14.2215 25.0362 14.9954 26.4839 16.1317 27.6202C17.268 28.7565 18.7157 29.5304 20.2918 29.8439C21.8679 30.1574 23.5015 29.9965 24.9862 29.3815C26.4708 28.7666 27.7398 27.7252 28.6326 26.389C29.5254 25.0529 30.0019 23.482 30.0019 21.875C29.9992 19.7209 29.1424 17.6558 27.6192 16.1327C26.0961 14.6095 24.031 13.7526 21.8769 13.75ZM21.8769 27.5C20.7644 27.5 19.6768 27.1701 18.7518 26.552C17.8268 25.9339 17.1058 25.0554 16.6801 24.0276C16.2543 22.9998 16.1429 21.8688 16.36 20.7776C16.577 19.6865 17.1127 18.6842 17.8994 17.8975C18.6861 17.1109 19.6884 16.5751 20.7795 16.3581C21.8707 16.141 23.0017 16.2524 24.0295 16.6782C25.0573 17.1039 25.9358 17.8249 26.5539 18.7499C27.172 19.6749 27.5019 20.7625 27.5019 21.875C27.5002 23.3663 26.9071 24.7961 25.8525 25.8506C24.798 26.9052 23.3682 27.4983 21.8769 27.5Z"/>
</svg>
