<svg width="145" height="145" viewBox="0 0 145 145" fill="none" xmlns="http://www.w3.org/2000/svg">
<g opacity="0.15">
<path d="M140 142.5C140 141.119 141.119 140 142.5 140C143.881 140 145 141.119 145 142.5C145 143.881 143.881 145 142.5 145C141.119 145 140 143.881 140 142.5Z" fill="white"/>
<path d="M130 142.5C130 141.119 131.119 140 132.5 140C133.881 140 135 141.119 135 142.5C135 143.881 133.881 145 132.5 145C131.119 145 130 143.881 130 142.5Z" fill="white"/>
<path d="M122.5 140C121.119 140 120 141.119 120 142.5C120 143.881 121.119 145 122.5 145C123.881 145 125 143.881 125 142.5C125 141.119 123.881 140 122.5 140Z" fill="white"/>
<path d="M110 142.5C110 141.119 111.119 140 112.5 140C113.881 140 115 141.119 115 142.5C115 143.881 113.881 145 112.5 145C111.119 145 110 143.881 110 142.5Z" fill="white"/>
<path d="M102.5 140C101.119 140 100 141.119 100 142.5C100 143.881 101.119 145 102.5 145C103.881 145 105 143.881 105 142.5C105 141.119 103.881 140 102.5 140Z" fill="white"/>
<path d="M90 142.5C90 141.119 91.1193 140 92.5 140C93.8807 140 95 141.119 95 142.5C95 143.881 93.8807 145 92.5 145C91.1193 145 90 143.881 90 142.5Z" fill="white"/>
<path d="M142.5 130C141.119 130 140 131.119 140 132.5C140 133.881 141.119 135 142.5 135C143.881 135 145 133.881 145 132.5C145 131.119 143.881 130 142.5 130Z" fill="white"/>
<path d="M130 132.5C130 131.119 131.119 130 132.5 130C133.881 130 135 131.119 135 132.5C135 133.881 133.881 135 132.5 135C131.119 135 130 133.881 130 132.5Z" fill="white"/>
<path d="M122.5 130C121.119 130 120 131.119 120 132.5C120 133.881 121.119 135 122.5 135C123.881 135 125 133.881 125 132.5C125 131.119 123.881 130 122.5 130Z" fill="white"/>
<path d="M110 132.5C110 131.119 111.119 130 112.5 130C113.881 130 115 131.119 115 132.5C115 133.881 113.881 135 112.5 135C111.119 135 110 133.881 110 132.5Z" fill="white"/>
<path d="M102.5 130C101.119 130 100 131.119 100 132.5C100 133.881 101.119 135 102.5 135C103.881 135 105 133.881 105 132.5C105 131.119 103.881 130 102.5 130Z" fill="white"/>
<path d="M90 132.5C90 131.119 91.1193 130 92.5 130C93.8807 130 95 131.119 95 132.5C95 133.881 93.8807 135 92.5 135C91.1193 135 90 133.881 90 132.5Z" fill="white"/>
<path d="M142.5 120C141.119 120 140 121.119 140 122.5C140 123.881 141.119 125 142.5 125C143.881 125 145 123.881 145 122.5C145 121.119 143.881 120 142.5 120Z" fill="white"/>
<path d="M130 122.5C130 121.119 131.119 120 132.5 120C133.881 120 135 121.119 135 122.5C135 123.881 133.881 125 132.5 125C131.119 125 130 123.881 130 122.5Z" fill="white"/>
<path d="M122.5 120C121.119 120 120 121.119 120 122.5C120 123.881 121.119 125 122.5 125C123.881 125 125 123.881 125 122.5C125 121.119 123.881 120 122.5 120Z" fill="white"/>
<path d="M110 122.5C110 121.119 111.119 120 112.5 120C113.881 120 115 121.119 115 122.5C115 123.881 113.881 125 112.5 125C111.119 125 110 123.881 110 122.5Z" fill="white"/>
<path d="M102.5 120C101.119 120 100 121.119 100 122.5C100 123.881 101.119 125 102.5 125C103.881 125 105 123.881 105 122.5C105 121.119 103.881 120 102.5 120Z" fill="white"/>
<path d="M90 122.5C90 121.119 91.1193 120 92.5 120C93.8807 120 95 121.119 95 122.5C95 123.881 93.8807 125 92.5 125C91.1193 125 90 123.881 90 122.5Z" fill="white"/>
<path d="M142.5 110C141.119 110 140 111.119 140 112.5C140 113.881 141.119 115 142.5 115C143.881 115 145 113.881 145 112.5C145 111.119 143.881 110 142.5 110Z" fill="white"/>
<path d="M130 112.5C130 111.119 131.119 110 132.5 110C133.881 110 135 111.119 135 112.5C135 113.881 133.881 115 132.5 115C131.119 115 130 113.881 130 112.5Z" fill="white"/>
<path d="M122.5 110C121.119 110 120 111.119 120 112.5C120 113.881 121.119 115 122.5 115C123.881 115 125 113.881 125 112.5C125 111.119 123.881 110 122.5 110Z" fill="white"/>
<path d="M110 112.5C110 111.119 111.119 110 112.5 110C113.881 110 115 111.119 115 112.5C115 113.881 113.881 115 112.5 115C111.119 115 110 113.881 110 112.5Z" fill="white"/>
<path d="M102.5 110C101.119 110 100 111.119 100 112.5C100 113.881 101.119 115 102.5 115C103.881 115 105 113.881 105 112.5C105 111.119 103.881 110 102.5 110Z" fill="white"/>
<path d="M90 112.5C90 111.119 91.1193 110 92.5 110C93.8807 110 95 111.119 95 112.5C95 113.881 93.8807 115 92.5 115C91.1193 115 90 113.881 90 112.5Z" fill="white"/>
<path d="M142.5 100C141.119 100 140 101.119 140 102.5C140 103.881 141.119 105 142.5 105C143.881 105 145 103.881 145 102.5C145 101.119 143.881 100 142.5 100Z" fill="white"/>
<path d="M130 102.5C130 101.119 131.119 100 132.5 100C133.881 100 135 101.119 135 102.5C135 103.881 133.881 105 132.5 105C131.119 105 130 103.881 130 102.5Z" fill="white"/>
<path d="M122.5 100C121.119 100 120 101.119 120 102.5C120 103.881 121.119 105 122.5 105C123.881 105 125 103.881 125 102.5C125 101.119 123.881 100 122.5 100Z" fill="white"/>
<path d="M110 102.5C110 101.119 111.119 100 112.5 100C113.881 100 115 101.119 115 102.5C115 103.881 113.881 105 112.5 105C111.119 105 110 103.881 110 102.5Z" fill="white"/>
<path d="M102.5 100C101.119 100 100 101.119 100 102.5C100 103.881 101.119 105 102.5 105C103.881 105 105 103.881 105 102.5C105 101.119 103.881 100 102.5 100Z" fill="white"/>
<path d="M90 102.5C90 101.119 91.1193 100 92.5 100C93.8807 100 95 101.119 95 102.5C95 103.881 93.8807 105 92.5 105C91.1193 105 90 103.881 90 102.5Z" fill="white"/>
<path d="M142.5 90C141.119 90 140 91.1193 140 92.5C140 93.8807 141.119 95 142.5 95C143.881 95 145 93.8807 145 92.5C145 91.1193 143.881 90 142.5 90Z" fill="white"/>
<path d="M130 92.5C130 91.1193 131.119 90 132.5 90C133.881 90 135 91.1193 135 92.5C135 93.8807 133.881 95 132.5 95C131.119 95 130 93.8807 130 92.5Z" fill="white"/>
<path d="M122.5 90C121.119 90 120 91.1193 120 92.5C120 93.8807 121.119 95 122.5 95C123.881 95 125 93.8807 125 92.5C125 91.1193 123.881 90 122.5 90Z" fill="white"/>
<path d="M110 92.5C110 91.1193 111.119 90 112.5 90C113.881 90 115 91.1193 115 92.5C115 93.8807 113.881 95 112.5 95C111.119 95 110 93.8807 110 92.5Z" fill="white"/>
<path d="M102.5 90C101.119 90 100 91.1193 100 92.5C100 93.8807 101.119 95 102.5 95C103.881 95 105 93.8807 105 92.5C105 91.1193 103.881 90 102.5 90Z" fill="white"/>
<path d="M90 92.5C90 91.1193 91.1193 90 92.5 90C93.8807 90 95 91.1193 95 92.5C95 93.8807 93.8807 95 92.5 95C91.1193 95 90 93.8807 90 92.5Z" fill="white"/>
<path d="M142.5 80C141.119 80 140 81.1193 140 82.5C140 83.8807 141.119 85 142.5 85C143.881 85 145 83.8807 145 82.5C145 81.1193 143.881 80 142.5 80Z" fill="white"/>
<path d="M130 82.5C130 81.1193 131.119 80 132.5 80C133.881 80 135 81.1193 135 82.5C135 83.8807 133.881 85 132.5 85C131.119 85 130 83.8807 130 82.5Z" fill="white"/>
<path d="M122.5 80C121.119 80 120 81.1193 120 82.5C120 83.8807 121.119 85 122.5 85C123.881 85 125 83.8807 125 82.5C125 81.1193 123.881 80 122.5 80Z" fill="white"/>
<path d="M110 82.5C110 81.1193 111.119 80 112.5 80C113.881 80 115 81.1193 115 82.5C115 83.8807 113.881 85 112.5 85C111.119 85 110 83.8807 110 82.5Z" fill="white"/>
<path d="M102.5 80C101.119 80 100 81.1193 100 82.5C100 83.8807 101.119 85 102.5 85C103.881 85 105 83.8807 105 82.5C105 81.1193 103.881 80 102.5 80Z" fill="white"/>
<path d="M90 82.5C90 81.1193 91.1193 80 92.5 80C93.8807 80 95 81.1193 95 82.5C95 83.8807 93.8807 85 92.5 85C91.1193 85 90 83.8807 90 82.5Z" fill="white"/>
<path d="M142.5 70C141.119 70 140 71.1193 140 72.5C140 73.8807 141.119 75 142.5 75C143.881 75 145 73.8807 145 72.5C145 71.1193 143.881 70 142.5 70Z" fill="white"/>
<path d="M130 72.5C130 71.1193 131.119 70 132.5 70C133.881 70 135 71.1193 135 72.5C135 73.8807 133.881 75 132.5 75C131.119 75 130 73.8807 130 72.5Z" fill="white"/>
<path d="M122.5 70C121.119 70 120 71.1193 120 72.5C120 73.8807 121.119 75 122.5 75C123.881 75 125 73.8807 125 72.5C125 71.1193 123.881 70 122.5 70Z" fill="white"/>
<path d="M110 72.5C110 71.1193 111.119 70 112.5 70C113.881 70 115 71.1193 115 72.5C115 73.8807 113.881 75 112.5 75C111.119 75 110 73.8807 110 72.5Z" fill="white"/>
<path d="M102.5 70C101.119 70 100 71.1193 100 72.5C100 73.8807 101.119 75 102.5 75C103.881 75 105 73.8807 105 72.5C105 71.1193 103.881 70 102.5 70Z" fill="white"/>
<path d="M90 72.5C90 71.1193 91.1193 70 92.5 70C93.8807 70 95 71.1193 95 72.5C95 73.8807 93.8807 75 92.5 75C91.1193 75 90 73.8807 90 72.5Z" fill="white"/>
<path d="M82.5 140C81.1193 140 80 141.119 80 142.5C80 143.881 81.1193 145 82.5 145C83.8807 145 85 143.881 85 142.5C85 141.119 83.8807 140 82.5 140Z" fill="white"/>
<path d="M80 132.5C80 131.119 81.1193 130 82.5 130C83.8807 130 85 131.119 85 132.5C85 133.881 83.8807 135 82.5 135C81.1193 135 80 133.881 80 132.5Z" fill="white"/>
<path d="M82.5 120C81.1193 120 80 121.119 80 122.5C80 123.881 81.1193 125 82.5 125C83.8807 125 85 123.881 85 122.5C85 121.119 83.8807 120 82.5 120Z" fill="white"/>
<path d="M80 112.5C80 111.119 81.1193 110 82.5 110C83.8807 110 85 111.119 85 112.5C85 113.881 83.8807 115 82.5 115C81.1193 115 80 113.881 80 112.5Z" fill="white"/>
<path d="M82.5 100C81.1193 100 80 101.119 80 102.5C80 103.881 81.1193 105 82.5 105C83.8807 105 85 103.881 85 102.5C85 101.119 83.8807 100 82.5 100Z" fill="white"/>
<path d="M80 92.5C80 91.1193 81.1193 90 82.5 90C83.8807 90 85 91.1193 85 92.5C85 93.8807 83.8807 95 82.5 95C81.1193 95 80 93.8807 80 92.5Z" fill="white"/>
<path d="M82.5 80C81.1193 80 80 81.1193 80 82.5C80 83.8807 81.1193 85 82.5 85C83.8807 85 85 83.8807 85 82.5C85 81.1193 83.8807 80 82.5 80Z" fill="white"/>
<path d="M80 72.5C80 71.1193 81.1193 70 82.5 70C83.8807 70 85 71.1193 85 72.5C85 73.8807 83.8807 75 82.5 75C81.1193 75 80 73.8807 80 72.5Z" fill="white"/>
<path d="M72.5 140C71.1193 140 70 141.119 70 142.5C70 143.881 71.1193 145 72.5 145C73.8807 145 75 143.881 75 142.5C75 141.119 73.8807 140 72.5 140Z" fill="white"/>
<path d="M70 132.5C70 131.119 71.1193 130 72.5 130C73.8807 130 75 131.119 75 132.5C75 133.881 73.8807 135 72.5 135C71.1193 135 70 133.881 70 132.5Z" fill="white"/>
<path d="M72.5 120C71.1193 120 70 121.119 70 122.5C70 123.881 71.1193 125 72.5 125C73.8807 125 75 123.881 75 122.5C75 121.119 73.8807 120 72.5 120Z" fill="white"/>
<path d="M70 112.5C70 111.119 71.1193 110 72.5 110C73.8807 110 75 111.119 75 112.5C75 113.881 73.8807 115 72.5 115C71.1193 115 70 113.881 70 112.5Z" fill="white"/>
<path d="M72.5 100C71.1193 100 70 101.119 70 102.5C70 103.881 71.1193 105 72.5 105C73.8807 105 75 103.881 75 102.5C75 101.119 73.8807 100 72.5 100Z" fill="white"/>
<path d="M70 92.5C70 91.1193 71.1193 90 72.5 90C73.8807 90 75 91.1193 75 92.5C75 93.8807 73.8807 95 72.5 95C71.1193 95 70 93.8807 70 92.5Z" fill="white"/>
<path d="M72.5 80C71.1193 80 70 81.1193 70 82.5C70 83.8807 71.1193 85 72.5 85C73.8807 85 75 83.8807 75 82.5C75 81.1193 73.8807 80 72.5 80Z" fill="white"/>
<path d="M70 72.5C70 71.1193 71.1193 70 72.5 70C73.8807 70 75 71.1193 75 72.5C75 73.8807 73.8807 75 72.5 75C71.1193 75 70 73.8807 70 72.5Z" fill="white"/>
<path d="M62.5 140C61.1193 140 60 141.119 60 142.5C60 143.881 61.1193 145 62.5 145C63.8807 145 65 143.881 65 142.5C65 141.119 63.8807 140 62.5 140Z" fill="white"/>
<path d="M60 132.5C60 131.119 61.1193 130 62.5 130C63.8807 130 65 131.119 65 132.5C65 133.881 63.8807 135 62.5 135C61.1193 135 60 133.881 60 132.5Z" fill="white"/>
<path d="M62.5 120C61.1193 120 60 121.119 60 122.5C60 123.881 61.1193 125 62.5 125C63.8807 125 65 123.881 65 122.5C65 121.119 63.8807 120 62.5 120Z" fill="white"/>
<path d="M60 112.5C60 111.119 61.1193 110 62.5 110C63.8807 110 65 111.119 65 112.5C65 113.881 63.8807 115 62.5 115C61.1193 115 60 113.881 60 112.5Z" fill="white"/>
<path d="M62.5 100C61.1193 100 60 101.119 60 102.5C60 103.881 61.1193 105 62.5 105C63.8807 105 65 103.881 65 102.5C65 101.119 63.8807 100 62.5 100Z" fill="white"/>
<path d="M60 92.5C60 91.1193 61.1193 90 62.5 90C63.8807 90 65 91.1193 65 92.5C65 93.8807 63.8807 95 62.5 95C61.1193 95 60 93.8807 60 92.5Z" fill="white"/>
<path d="M62.5 80C61.1193 80 60 81.1193 60 82.5C60 83.8807 61.1193 85 62.5 85C63.8807 85 65 83.8807 65 82.5C65 81.1193 63.8807 80 62.5 80Z" fill="white"/>
<path d="M60 72.5C60 71.1193 61.1193 70 62.5 70C63.8807 70 65 71.1193 65 72.5C65 73.8807 63.8807 75 62.5 75C61.1193 75 60 73.8807 60 72.5Z" fill="white"/>
<path d="M52.5 140C51.1193 140 50 141.119 50 142.5C50 143.881 51.1193 145 52.5 145C53.8807 145 55 143.881 55 142.5C55 141.119 53.8807 140 52.5 140Z" fill="white"/>
<path d="M50 132.5C50 131.119 51.1193 130 52.5 130C53.8807 130 55 131.119 55 132.5C55 133.881 53.8807 135 52.5 135C51.1193 135 50 133.881 50 132.5Z" fill="white"/>
<path d="M52.5 120C51.1193 120 50 121.119 50 122.5C50 123.881 51.1193 125 52.5 125C53.8807 125 55 123.881 55 122.5C55 121.119 53.8807 120 52.5 120Z" fill="white"/>
<path d="M50 112.5C50 111.119 51.1193 110 52.5 110C53.8807 110 55 111.119 55 112.5C55 113.881 53.8807 115 52.5 115C51.1193 115 50 113.881 50 112.5Z" fill="white"/>
<path d="M52.5 100C51.1193 100 50 101.119 50 102.5C50 103.881 51.1193 105 52.5 105C53.8807 105 55 103.881 55 102.5C55 101.119 53.8807 100 52.5 100Z" fill="white"/>
<path d="M50 92.5C50 91.1193 51.1193 90 52.5 90C53.8807 90 55 91.1193 55 92.5C55 93.8807 53.8807 95 52.5 95C51.1193 95 50 93.8807 50 92.5Z" fill="white"/>
<path d="M52.5 80C51.1193 80 50 81.1193 50 82.5C50 83.8807 51.1193 85 52.5 85C53.8807 85 55 83.8807 55 82.5C55 81.1193 53.8807 80 52.5 80Z" fill="white"/>
<path d="M50 72.5C50 71.1193 51.1193 70 52.5 70C53.8807 70 55 71.1193 55 72.5C55 73.8807 53.8807 75 52.5 75C51.1193 75 50 73.8807 50 72.5Z" fill="white"/>
<path d="M42.5 140C41.1193 140 40 141.119 40 142.5C40 143.881 41.1193 145 42.5 145C43.8807 145 45 143.881 45 142.5C45 141.119 43.8807 140 42.5 140Z" fill="white"/>
<path d="M40 132.5C40 131.119 41.1193 130 42.5 130C43.8807 130 45 131.119 45 132.5C45 133.881 43.8807 135 42.5 135C41.1193 135 40 133.881 40 132.5Z" fill="white"/>
<path d="M42.5 120C41.1193 120 40 121.119 40 122.5C40 123.881 41.1193 125 42.5 125C43.8807 125 45 123.881 45 122.5C45 121.119 43.8807 120 42.5 120Z" fill="white"/>
<path d="M40 112.5C40 111.119 41.1193 110 42.5 110C43.8807 110 45 111.119 45 112.5C45 113.881 43.8807 115 42.5 115C41.1193 115 40 113.881 40 112.5Z" fill="white"/>
<path d="M42.5 100C41.1193 100 40 101.119 40 102.5C40 103.881 41.1193 105 42.5 105C43.8807 105 45 103.881 45 102.5C45 101.119 43.8807 100 42.5 100Z" fill="white"/>
<path d="M40 92.5C40 91.1193 41.1193 90 42.5 90C43.8807 90 45 91.1193 45 92.5C45 93.8807 43.8807 95 42.5 95C41.1193 95 40 93.8807 40 92.5Z" fill="white"/>
<path d="M42.5 80C41.1193 80 40 81.1193 40 82.5C40 83.8807 41.1193 85 42.5 85C43.8807 85 45 83.8807 45 82.5C45 81.1193 43.8807 80 42.5 80Z" fill="white"/>
<path d="M40 72.5C40 71.1193 41.1193 70 42.5 70C43.8807 70 45 71.1193 45 72.5C45 73.8807 43.8807 75 42.5 75C41.1193 75 40 73.8807 40 72.5Z" fill="white"/>
<path d="M32.5 140C31.1193 140 30 141.119 30 142.5C30 143.881 31.1193 145 32.5 145C33.8807 145 35 143.881 35 142.5C35 141.119 33.8807 140 32.5 140Z" fill="white"/>
<path d="M30 132.5C30 131.119 31.1193 130 32.5 130C33.8807 130 35 131.119 35 132.5C35 133.881 33.8807 135 32.5 135C31.1193 135 30 133.881 30 132.5Z" fill="white"/>
<path d="M32.5 120C31.1193 120 30 121.119 30 122.5C30 123.881 31.1193 125 32.5 125C33.8807 125 35 123.881 35 122.5C35 121.119 33.8807 120 32.5 120Z" fill="white"/>
<path d="M30 112.5C30 111.119 31.1193 110 32.5 110C33.8807 110 35 111.119 35 112.5C35 113.881 33.8807 115 32.5 115C31.1193 115 30 113.881 30 112.5Z" fill="white"/>
<path d="M32.5 100C31.1193 100 30 101.119 30 102.5C30 103.881 31.1193 105 32.5 105C33.8807 105 35 103.881 35 102.5C35 101.119 33.8807 100 32.5 100Z" fill="white"/>
<path d="M30 92.5C30 91.1193 31.1193 90 32.5 90C33.8807 90 35 91.1193 35 92.5C35 93.8807 33.8807 95 32.5 95C31.1193 95 30 93.8807 30 92.5Z" fill="white"/>
<path d="M32.5 80C31.1193 80 30 81.1193 30 82.5C30 83.8807 31.1193 85 32.5 85C33.8807 85 35 83.8807 35 82.5C35 81.1193 33.8807 80 32.5 80Z" fill="white"/>
<path d="M30 72.5C30 71.1193 31.1193 70 32.5 70C33.8807 70 35 71.1193 35 72.5C35 73.8807 33.8807 75 32.5 75C31.1193 75 30 73.8807 30 72.5Z" fill="white"/>
<path d="M22.5 140C21.1193 140 20 141.119 20 142.5C20 143.881 21.1193 145 22.5 145C23.8807 145 25 143.881 25 142.5C25 141.119 23.8807 140 22.5 140Z" fill="white"/>
<path d="M20 132.5C20 131.119 21.1193 130 22.5 130C23.8807 130 25 131.119 25 132.5C25 133.881 23.8807 135 22.5 135C21.1193 135 20 133.881 20 132.5Z" fill="white"/>
<path d="M22.5 120C21.1193 120 20 121.119 20 122.5C20 123.881 21.1193 125 22.5 125C23.8807 125 25 123.881 25 122.5C25 121.119 23.8807 120 22.5 120Z" fill="white"/>
<path d="M20 112.5C20 111.119 21.1193 110 22.5 110C23.8807 110 25 111.119 25 112.5C25 113.881 23.8807 115 22.5 115C21.1193 115 20 113.881 20 112.5Z" fill="white"/>
<path d="M22.5 100C21.1193 100 20 101.119 20 102.5C20 103.881 21.1193 105 22.5 105C23.8807 105 25 103.881 25 102.5C25 101.119 23.8807 100 22.5 100Z" fill="white"/>
<path d="M20 92.5C20 91.1193 21.1193 90 22.5 90C23.8807 90 25 91.1193 25 92.5C25 93.8807 23.8807 95 22.5 95C21.1193 95 20 93.8807 20 92.5Z" fill="white"/>
<path d="M22.5 80C21.1193 80 20 81.1193 20 82.5C20 83.8807 21.1193 85 22.5 85C23.8807 85 25 83.8807 25 82.5C25 81.1193 23.8807 80 22.5 80Z" fill="white"/>
<path d="M20 72.5C20 71.1193 21.1193 70 22.5 70C23.8807 70 25 71.1193 25 72.5C25 73.8807 23.8807 75 22.5 75C21.1193 75 20 73.8807 20 72.5Z" fill="white"/>
<path d="M12.5 140C11.1193 140 10 141.119 10 142.5C10 143.881 11.1193 145 12.5 145C13.8807 145 15 143.881 15 142.5C15 141.119 13.8807 140 12.5 140Z" fill="white"/>
<path d="M10 132.5C10 131.119 11.1193 130 12.5 130C13.8807 130 15 131.119 15 132.5C15 133.881 13.8807 135 12.5 135C11.1193 135 10 133.881 10 132.5Z" fill="white"/>
<path d="M12.5 120C11.1193 120 10 121.119 10 122.5C10 123.881 11.1193 125 12.5 125C13.8807 125 15 123.881 15 122.5C15 121.119 13.8807 120 12.5 120Z" fill="white"/>
<path d="M10 112.5C10 111.119 11.1193 110 12.5 110C13.8807 110 15 111.119 15 112.5C15 113.881 13.8807 115 12.5 115C11.1193 115 10 113.881 10 112.5Z" fill="white"/>
<path d="M12.5 100C11.1193 100 10 101.119 10 102.5C10 103.881 11.1193 105 12.5 105C13.8807 105 15 103.881 15 102.5C15 101.119 13.8807 100 12.5 100Z" fill="white"/>
<path d="M10 92.5C10 91.1193 11.1193 90 12.5 90C13.8807 90 15 91.1193 15 92.5C15 93.8807 13.8807 95 12.5 95C11.1193 95 10 93.8807 10 92.5Z" fill="white"/>
<path d="M12.5 80C11.1193 80 10 81.1193 10 82.5C10 83.8807 11.1193 85 12.5 85C13.8807 85 15 83.8807 15 82.5C15 81.1193 13.8807 80 12.5 80Z" fill="white"/>
<path d="M10 72.5C10 71.1193 11.1193 70 12.5 70C13.8807 70 15 71.1193 15 72.5C15 73.8807 13.8807 75 12.5 75C11.1193 75 10 73.8807 10 72.5Z" fill="white"/>
<path d="M2.5 140C1.11929 140 1.20706e-07 141.119 0 142.5C-1.20706e-07 143.881 1.11929 145 2.5 145C3.88071 145 5 143.881 5 142.5C5 141.119 3.88071 140 2.5 140Z" fill="white"/>
<path d="M8.74228e-07 132.5C9.94933e-07 131.119 1.11929 130 2.5 130C3.88071 130 5 131.119 5 132.5C5 133.881 3.88071 135 2.5 135C1.11929 135 7.53522e-07 133.881 8.74228e-07 132.5Z" fill="white"/>
<path d="M2.5 120C1.1193 120 1.86916e-06 121.119 1.74846e-06 122.5C1.62775e-06 123.881 1.11929 125 2.5 125C3.88071 125 5 123.881 5 122.5C5 121.119 3.88071 120 2.5 120Z" fill="white"/>
<path d="M2.62268e-06 112.5C2.74339e-06 111.119 1.1193 110 2.5 110C3.88071 110 5 111.119 5 112.5C5 113.881 3.88071 115 2.5 115C1.1193 115 2.50198e-06 113.881 2.62268e-06 112.5Z" fill="white"/>
<path d="M2.5 100C1.1193 100 3.61762e-06 101.119 3.49691e-06 102.5C3.37621e-06 103.881 1.1193 105 2.5 105C3.88071 105 5 103.881 5 102.5C5 101.119 3.88071 100 2.5 100Z" fill="white"/>
<path d="M4.37114e-06 92.5C4.49184e-06 91.1193 1.1193 90 2.5 90C3.88071 90 5 91.1193 5 92.5C5 93.8807 3.88071 95 2.5 95C1.1193 95 4.25043e-06 93.8807 4.37114e-06 92.5Z" fill="white"/>
<path d="M2.50001 80C1.1193 80 5.36607e-06 81.1193 5.24537e-06 82.5C5.12466e-06 83.8807 1.1193 85 2.50001 85C3.88071 85 5.00001 83.8807 5.00001 82.5C5.00001 81.1193 3.88071 80 2.50001 80Z" fill="white"/>
<path d="M6.11959e-06 72.5C6.2403e-06 71.1193 1.1193 70 2.50001 70C3.88071 70 5.00001 71.1193 5.00001 72.5C5.00001 73.8807 3.88071 75 2.50001 75C1.1193 75 5.99889e-06 73.8807 6.11959e-06 72.5Z" fill="white"/>
<path d="M142.5 60C141.119 60 140 61.1193 140 62.5C140 63.8807 141.119 65 142.5 65C143.881 65 145 63.8807 145 62.5C145 61.1193 143.881 60 142.5 60Z" fill="white"/>
<path d="M132.5 60C131.119 60 130 61.1193 130 62.5C130 63.8807 131.119 65 132.5 65C133.881 65 135 63.8807 135 62.5C135 61.1193 133.881 60 132.5 60Z" fill="white"/>
<path d="M120 62.5C120 61.1193 121.119 60 122.5 60C123.881 60 125 61.1193 125 62.5C125 63.8807 123.881 65 122.5 65C121.119 65 120 63.8807 120 62.5Z" fill="white"/>
<path d="M112.5 60C111.119 60 110 61.1193 110 62.5C110 63.8807 111.119 65 112.5 65C113.881 65 115 63.8807 115 62.5C115 61.1193 113.881 60 112.5 60Z" fill="white"/>
<path d="M100 62.5C100 61.1193 101.119 60 102.5 60C103.881 60 105 61.1193 105 62.5C105 63.8807 103.881 65 102.5 65C101.119 65 100 63.8807 100 62.5Z" fill="white"/>
<path d="M92.5 60C91.1193 60 90 61.1193 90 62.5C90 63.8807 91.1193 65 92.5 65C93.8807 65 95 63.8807 95 62.5C95 61.1193 93.8807 60 92.5 60Z" fill="white"/>
<path d="M140 52.5C140 51.1193 141.119 50 142.5 50C143.881 50 145 51.1193 145 52.5C145 53.8807 143.881 55 142.5 55C141.119 55 140 53.8807 140 52.5Z" fill="white"/>
<path d="M132.5 50C131.119 50 130 51.1193 130 52.5C130 53.8807 131.119 55 132.5 55C133.881 55 135 53.8807 135 52.5C135 51.1193 133.881 50 132.5 50Z" fill="white"/>
<path d="M120 52.5C120 51.1193 121.119 50 122.5 50C123.881 50 125 51.1193 125 52.5C125 53.8807 123.881 55 122.5 55C121.119 55 120 53.8807 120 52.5Z" fill="white"/>
<path d="M112.5 50C111.119 50 110 51.1193 110 52.5C110 53.8807 111.119 55 112.5 55C113.881 55 115 53.8807 115 52.5C115 51.1193 113.881 50 112.5 50Z" fill="white"/>
<path d="M100 52.5C100 51.1193 101.119 50 102.5 50C103.881 50 105 51.1193 105 52.5C105 53.8807 103.881 55 102.5 55C101.119 55 100 53.8807 100 52.5Z" fill="white"/>
<path d="M92.5 50C91.1193 50 90 51.1193 90 52.5C90 53.8807 91.1193 55 92.5 55C93.8807 55 95 53.8807 95 52.5C95 51.1193 93.8807 50 92.5 50Z" fill="white"/>
<path d="M140 42.5C140 41.1193 141.119 40 142.5 40C143.881 40 145 41.1193 145 42.5C145 43.8807 143.881 45 142.5 45C141.119 45 140 43.8807 140 42.5Z" fill="white"/>
<path d="M132.5 40C131.119 40 130 41.1193 130 42.5C130 43.8807 131.119 45 132.5 45C133.881 45 135 43.8807 135 42.5C135 41.1193 133.881 40 132.5 40Z" fill="white"/>
<path d="M120 42.5C120 41.1193 121.119 40 122.5 40C123.881 40 125 41.1193 125 42.5C125 43.8807 123.881 45 122.5 45C121.119 45 120 43.8807 120 42.5Z" fill="white"/>
<path d="M112.5 40C111.119 40 110 41.1193 110 42.5C110 43.8807 111.119 45 112.5 45C113.881 45 115 43.8807 115 42.5C115 41.1193 113.881 40 112.5 40Z" fill="white"/>
<path d="M100 42.5C100 41.1193 101.119 40 102.5 40C103.881 40 105 41.1193 105 42.5C105 43.8807 103.881 45 102.5 45C101.119 45 100 43.8807 100 42.5Z" fill="white"/>
<path d="M92.5 40C91.1193 40 90 41.1193 90 42.5C90 43.8807 91.1193 45 92.5 45C93.8807 45 95 43.8807 95 42.5C95 41.1193 93.8807 40 92.5 40Z" fill="white"/>
<path d="M140 32.5C140 31.1193 141.119 30 142.5 30C143.881 30 145 31.1193 145 32.5C145 33.8807 143.881 35 142.5 35C141.119 35 140 33.8807 140 32.5Z" fill="white"/>
<path d="M132.5 30C131.119 30 130 31.1193 130 32.5C130 33.8807 131.119 35 132.5 35C133.881 35 135 33.8807 135 32.5C135 31.1193 133.881 30 132.5 30Z" fill="white"/>
<path d="M120 32.5C120 31.1193 121.119 30 122.5 30C123.881 30 125 31.1193 125 32.5C125 33.8807 123.881 35 122.5 35C121.119 35 120 33.8807 120 32.5Z" fill="white"/>
<path d="M102.5 30C101.119 30 100 31.1193 100 32.5C100 33.8807 101.119 35 102.5 35C103.881 35 105 33.8807 105 32.5C105 31.1193 103.881 30 102.5 30Z" fill="white"/>
<path d="M90 32.5C90 31.1193 91.1193 30 92.5 30C93.8807 30 95 31.1193 95 32.5C95 33.8807 93.8807 35 92.5 35C91.1193 35 90 33.8807 90 32.5Z" fill="white"/>
<path d="M142.5 20C141.119 20 140 21.1193 140 22.5C140 23.8807 141.119 25 142.5 25C143.881 25 145 23.8807 145 22.5C145 21.1193 143.881 20 142.5 20Z" fill="white"/>
<path d="M130 22.5C130 21.1193 131.119 20 132.5 20C133.881 20 135 21.1193 135 22.5C135 23.8807 133.881 25 132.5 25C131.119 25 130 23.8807 130 22.5Z" fill="white"/>
<path d="M122.5 20C121.119 20 120 21.1193 120 22.5C120 23.8807 121.119 25 122.5 25C123.881 25 125 23.8807 125 22.5C125 21.1193 123.881 20 122.5 20Z" fill="white"/>
<path d="M110 22.5C110 21.1193 111.119 20 112.5 20C113.881 20 115 21.1193 115 22.5C115 23.8807 113.881 25 112.5 25C111.119 25 110 23.8807 110 22.5Z" fill="white"/>
<path d="M102.5 20C101.119 20 100 21.1193 100 22.5C100 23.8807 101.119 25 102.5 25C103.881 25 105 23.8807 105 22.5C105 21.1193 103.881 20 102.5 20Z" fill="white"/>
<path d="M90 22.5C90 21.1193 91.1193 20 92.5 20C93.8807 20 95 21.1193 95 22.5C95 23.8807 93.8807 25 92.5 25C91.1193 25 90 23.8807 90 22.5Z" fill="white"/>
<path d="M142.5 10C141.119 10 140 11.1193 140 12.5C140 13.8807 141.119 15 142.5 15C143.881 15 145 13.8807 145 12.5C145 11.1193 143.881 10 142.5 10Z" fill="white"/>
<path d="M130 12.5C130 11.1193 131.119 10 132.5 10C133.881 10 135 11.1193 135 12.5C135 13.8807 133.881 15 132.5 15C131.119 15 130 13.8807 130 12.5Z" fill="white"/>
<path d="M122.5 10C121.119 10 120 11.1193 120 12.5C120 13.8807 121.119 15 122.5 15C123.881 15 125 13.8807 125 12.5C125 11.1193 123.881 10 122.5 10Z" fill="white"/>
<path d="M110 12.5C110 11.1193 111.119 10 112.5 10C113.881 10 115 11.1193 115 12.5C115 13.8807 113.881 15 112.5 15C111.119 15 110 13.8807 110 12.5Z" fill="white"/>
<path d="M102.5 10C101.119 10 100 11.1193 100 12.5C100 13.8807 101.119 15 102.5 15C103.881 15 105 13.8807 105 12.5C105 11.1193 103.881 10 102.5 10Z" fill="white"/>
<path d="M90 12.5C90 11.1193 91.1193 10 92.5 10C93.8807 10 95 11.1193 95 12.5C95 13.8807 93.8807 15 92.5 15C91.1193 15 90 13.8807 90 12.5Z" fill="white"/>
<path d="M142.5 1.22392e-05C141.119 1.21185e-05 140 1.11931 140 2.50001C140 3.88072 141.119 5.00001 142.5 5.00001C143.881 5.00001 145 3.88072 145 2.50001C145 1.11931 143.881 1.23599e-05 142.5 1.22392e-05Z" fill="white"/>
<path d="M130 2.50001C130 1.1193 131.119 1.12443e-05 132.5 1.1365e-05C133.881 1.14857e-05 135 1.1193 135 2.50001C135 3.88072 133.881 5.00001 132.5 5.00001C131.119 5.00001 130 3.88072 130 2.50001Z" fill="white"/>
<path d="M122.5 1.04907e-05C121.119 1.037e-05 120 1.1193 120 2.50001C120 3.88072 121.119 5.00001 122.5 5.00001C123.881 5.00001 125 3.88072 125 2.50001C125 1.1193 123.881 1.06114e-05 122.5 1.04907e-05Z" fill="white"/>
<path d="M110 2.50001C110 1.1193 111.119 9.4958e-06 112.5 9.61651e-06C113.881 9.73721e-06 115 1.1193 115 2.50001C115 3.88072 113.881 5.00001 112.5 5.00001C111.119 5.00001 110 3.88072 110 2.50001Z" fill="white"/>
<path d="M102.5 8.74228e-06C101.119 8.62157e-06 100 1.1193 100 2.50001C100 3.88072 101.119 5.00001 102.5 5.00001C103.881 5.00001 105 3.88072 105 2.50001C105 1.1193 103.881 8.86298e-06 102.5 8.74228e-06Z" fill="white"/>
<path d="M90 2.50001C90 1.1193 91.1193 7.74735e-06 92.5 7.86805e-06C93.8807 7.98876e-06 95 1.1193 95 2.50001C95 3.88071 93.8807 5.00001 92.5 5.00001C91.1193 5.00001 90 3.88071 90 2.50001Z" fill="white"/>
<path d="M82.5 60C81.1193 60 80 61.1193 80 62.5C80 63.8807 81.1193 65 82.5 65C83.8807 65 85 63.8807 85 62.5C85 61.1193 83.8807 60 82.5 60Z" fill="white"/>
<path d="M80 52.5C80 51.1193 81.1193 50 82.5 50C83.8807 50 85 51.1193 85 52.5C85 53.8807 83.8807 55 82.5 55C81.1193 55 80 53.8807 80 52.5Z" fill="white"/>
<path d="M82.5 40C81.1193 40 80 41.1193 80 42.5C80 43.8807 81.1193 45 82.5 45C83.8807 45 85 43.8807 85 42.5C85 41.1193 83.8807 40 82.5 40Z" fill="white"/>
<path d="M80 32.5C80 31.1193 81.1193 30 82.5 30C83.8807 30 85 31.1193 85 32.5C85 33.8807 83.8807 35 82.5 35C81.1193 35 80 33.8807 80 32.5Z" fill="white"/>
<path d="M82.5 20C81.1193 20 80 21.1193 80 22.5C80 23.8807 81.1193 25 82.5 25C83.8807 25 85 23.8807 85 22.5C85 21.1193 83.8807 20 82.5 20Z" fill="white"/>
<path d="M80 12.5C80 11.1193 81.1193 10 82.5 10C83.8807 10 85 11.1193 85 12.5C85 13.8807 83.8807 15 82.5 15C81.1193 15 80 13.8807 80 12.5Z" fill="white"/>
<path d="M82.5 6.99382e-06C81.1193 6.87312e-06 80 1.1193 80 2.50001C80 3.88071 81.1193 5.00001 82.5 5.00001C83.8807 5.00001 85 3.88071 85 2.50001C85 1.1193 83.8807 7.11453e-06 82.5 6.99382e-06Z" fill="white"/>
<path d="M70 62.5C70 61.1193 71.1193 60 72.5 60C73.8807 60 75 61.1193 75 62.5C75 63.8807 73.8807 65 72.5 65C71.1193 65 70 63.8807 70 62.5Z" fill="white"/>
<path d="M72.5 50C71.1193 50 70 51.1193 70 52.5C70 53.8807 71.1193 55 72.5 55C73.8807 55 75 53.8807 75 52.5C75 51.1193 73.8807 50 72.5 50Z" fill="white"/>
<path d="M70 42.5C70 41.1193 71.1193 40 72.5 40C73.8807 40 75 41.1193 75 42.5C75 43.8807 73.8807 45 72.5 45C71.1193 45 70 43.8807 70 42.5Z" fill="white"/>
<path d="M72.5 30C71.1193 30 70 31.1193 70 32.5C70 33.8807 71.1193 35 72.5 35C73.8807 35 75 33.8807 75 32.5C75 31.1193 73.8807 30 72.5 30Z" fill="white"/>
<path d="M70 22.5C70 21.1193 71.1193 20 72.5 20C73.8807 20 75 21.1193 75 22.5C75 23.8807 73.8807 25 72.5 25C71.1193 25 70 23.8807 70 22.5Z" fill="white"/>
<path d="M72.5 10C71.1193 10 70 11.1193 70 12.5C70 13.8807 71.1193 15 72.5 15C73.8807 15 75 13.8807 75 12.5C75 11.1193 73.8807 10 72.5 10Z" fill="white"/>
<path d="M70 2.50001C70 1.1193 71.1193 5.99889e-06 72.5 6.1196e-06C73.8807 6.2403e-06 75 1.1193 75 2.50001C75 3.88071 73.8807 5.00001 72.5 5.00001C71.1193 5.00001 70 3.88071 70 2.50001Z" fill="white"/>
<path d="M62.5 60C61.1193 60 60 61.1193 60 62.5C60 63.8807 61.1193 65 62.5 65C63.8807 65 65 63.8807 65 62.5C65 61.1193 63.8807 60 62.5 60Z" fill="white"/>
<path d="M60 52.5C60 51.1193 61.1193 50 62.5 50C63.8807 50 65 51.1193 65 52.5C65 53.8807 63.8807 55 62.5 55C61.1193 55 60 53.8807 60 52.5Z" fill="white"/>
<path d="M62.5 40C61.1193 40 60 41.1193 60 42.5C60 43.8807 61.1193 45 62.5 45C63.8807 45 65 43.8807 65 42.5C65 41.1193 63.8807 40 62.5 40Z" fill="white"/>
<path d="M60 32.5C60 31.1193 61.1193 30 62.5 30C63.8807 30 65 31.1193 65 32.5C65 33.8807 63.8807 35 62.5 35C61.1193 35 60 33.8807 60 32.5Z" fill="white"/>
<path d="M62.5 20C61.1193 20 60 21.1193 60 22.5C60 23.8807 61.1193 25 62.5 25C63.8807 25 65 23.8807 65 22.5C65 21.1193 63.8807 20 62.5 20Z" fill="white"/>
<path d="M60 12.5C60 11.1193 61.1193 10 62.5 10C63.8807 10 65 11.1193 65 12.5C65 13.8807 63.8807 15 62.5 15C61.1193 15 60 13.8807 60 12.5Z" fill="white"/>
<path d="M62.5 5.24537e-06C61.1193 5.12466e-06 60 1.1193 60 2.50001C60 3.88071 61.1193 5.00001 62.5 5.00001C63.8807 5.00001 65 3.88071 65 2.50001C65 1.1193 63.8807 5.36607e-06 62.5 5.24537e-06Z" fill="white"/>
<path d="M50 62.5C50 61.1193 51.1193 60 52.5 60C53.8807 60 55 61.1193 55 62.5C55 63.8807 53.8807 65 52.5 65C51.1193 65 50 63.8807 50 62.5Z" fill="white"/>
<path d="M52.5 50C51.1193 50 50 51.1193 50 52.5C50 53.8807 51.1193 55 52.5 55C53.8807 55 55 53.8807 55 52.5C55 51.1193 53.8807 50 52.5 50Z" fill="white"/>
<path d="M50 42.5C50 41.1193 51.1193 40 52.5 40C53.8807 40 55 41.1193 55 42.5C55 43.8807 53.8807 45 52.5 45C51.1193 45 50 43.8807 50 42.5Z" fill="white"/>
<path d="M52.5 30C51.1193 30 50 31.1193 50 32.5C50 33.8807 51.1193 35 52.5 35C53.8807 35 55 33.8807 55 32.5C55 31.1193 53.8807 30 52.5 30Z" fill="white"/>
<path d="M50 22.5C50 21.1193 51.1193 20 52.5 20C53.8807 20 55 21.1193 55 22.5C55 23.8807 53.8807 25 52.5 25C51.1193 25 50 23.8807 50 22.5Z" fill="white"/>
<path d="M52.5 10C51.1193 10 50 11.1193 50 12.5C50 13.8807 51.1193 15 52.5 15C53.8807 15 55 13.8807 55 12.5C55 11.1193 53.8807 10 52.5 10Z" fill="white"/>
<path d="M50 2.5C50 1.1193 51.1193 4.25043e-06 52.5 4.37114e-06C53.8807 4.49185e-06 55 1.1193 55 2.5C55 3.88071 53.8807 5 52.5 5C51.1193 5 50 3.88071 50 2.5Z" fill="white"/>
<path d="M42.5 60C41.1193 60 40 61.1193 40 62.5C40 63.8807 41.1193 65 42.5 65C43.8807 65 45 63.8807 45 62.5C45 61.1193 43.8807 60 42.5 60Z" fill="white"/>
<path d="M40 52.5C40 51.1193 41.1193 50 42.5 50C43.8807 50 45 51.1193 45 52.5C45 53.8807 43.8807 55 42.5 55C41.1193 55 40 53.8807 40 52.5Z" fill="white"/>
<path d="M42.5 40C41.1193 40 40 41.1193 40 42.5C40 43.8807 41.1193 45 42.5 45C43.8807 45 45 43.8807 45 42.5C45 41.1193 43.8807 40 42.5 40Z" fill="white"/>
<path d="M40 32.5C40 31.1193 41.1193 30 42.5 30C43.8807 30 45 31.1193 45 32.5C45 33.8807 43.8807 35 42.5 35C41.1193 35 40 33.8807 40 32.5Z" fill="white"/>
<path d="M42.5 20C41.1193 20 40 21.1193 40 22.5C40 23.8807 41.1193 25 42.5 25C43.8807 25 45 23.8807 45 22.5C45 21.1193 43.8807 20 42.5 20Z" fill="white"/>
<path d="M40 12.5C40 11.1193 41.1193 10 42.5 10C43.8807 10 45 11.1193 45 12.5C45 13.8807 43.8807 15 42.5 15C41.1193 15 40 13.8807 40 12.5Z" fill="white"/>
<path d="M42.5 3.49691e-06C41.1193 3.37621e-06 40 1.1193 40 2.5C40 3.88071 41.1193 5 42.5 5C43.8807 5 45 3.88071 45 2.5C45 1.1193 43.8807 3.61762e-06 42.5 3.49691e-06Z" fill="white"/>
<path d="M30 62.5C30 61.1193 31.1193 60 32.5 60C33.8807 60 35 61.1193 35 62.5C35 63.8807 33.8807 65 32.5 65C31.1193 65 30 63.8807 30 62.5Z" fill="white"/>
<path d="M32.5 50C31.1193 50 30 51.1193 30 52.5C30 53.8807 31.1193 55 32.5 55C33.8807 55 35 53.8807 35 52.5C35 51.1193 33.8807 50 32.5 50Z" fill="white"/>
<path d="M30 42.5C30 41.1193 31.1193 40 32.5 40C33.8807 40 35 41.1193 35 42.5C35 43.8807 33.8807 45 32.5 45C31.1193 45 30 43.8807 30 42.5Z" fill="white"/>
<path d="M32.5 30C31.1193 30 30 31.1193 30 32.5C30 33.8807 31.1193 35 32.5 35C33.8807 35 35 33.8807 35 32.5C35 31.1193 33.8807 30 32.5 30Z" fill="white"/>
<path d="M30 22.5C30 21.1193 31.1193 20 32.5 20C33.8807 20 35 21.1193 35 22.5C35 23.8807 33.8807 25 32.5 25C31.1193 25 30 23.8807 30 22.5Z" fill="white"/>
<path d="M32.5 10C31.1193 10 30 11.1193 30 12.5C30 13.8807 31.1193 15 32.5 15C33.8807 15 35 13.8807 35 12.5C35 11.1193 33.8807 10 32.5 10Z" fill="white"/>
<path d="M30 2.5C30 1.1193 31.1193 2.50198e-06 32.5 2.62268e-06C33.8807 2.74339e-06 35 1.1193 35 2.5C35 3.88071 33.8807 5 32.5 5C31.1193 5 30 3.88071 30 2.5Z" fill="white"/>
<path d="M22.5 60C21.1193 60 20 61.1193 20 62.5C20 63.8807 21.1193 65 22.5 65C23.8807 65 25 63.8807 25 62.5C25 61.1193 23.8807 60 22.5 60Z" fill="white"/>
<path d="M20 52.5C20 51.1193 21.1193 50 22.5 50C23.8807 50 25 51.1193 25 52.5C25 53.8807 23.8807 55 22.5 55C21.1193 55 20 53.8807 20 52.5Z" fill="white"/>
<path d="M22.5 40C21.1193 40 20 41.1193 20 42.5C20 43.8807 21.1193 45 22.5 45C23.8807 45 25 43.8807 25 42.5C25 41.1193 23.8807 40 22.5 40Z" fill="white"/>
<path d="M20 32.5C20 31.1193 21.1193 30 22.5 30C23.8807 30 25 31.1193 25 32.5C25 33.8807 23.8807 35 22.5 35C21.1193 35 20 33.8807 20 32.5Z" fill="white"/>
<path d="M22.5 20C21.1193 20 20 21.1193 20 22.5C20 23.8807 21.1193 25 22.5 25C23.8807 25 25 23.8807 25 22.5C25 21.1193 23.8807 20 22.5 20Z" fill="white"/>
<path d="M20 12.5C20 11.1193 21.1193 10 22.5 10C23.8807 10 25 11.1193 25 12.5C25 13.8807 23.8807 15 22.5 15C21.1193 15 20 13.8807 20 12.5Z" fill="white"/>
<path d="M22.5 1.74846e-06C21.1193 1.62775e-06 20 1.11929 20 2.5C20 3.88071 21.1193 5 22.5 5C23.8807 5 25 3.88071 25 2.5C25 1.1193 23.8807 1.86916e-06 22.5 1.74846e-06Z" fill="white"/>
<path d="M10 62.5C10 61.1193 11.1193 60 12.5 60C13.8807 60 15 61.1193 15 62.5C15 63.8807 13.8807 65 12.5 65C11.1193 65 10 63.8807 10 62.5Z" fill="white"/>
<path d="M12.5 50C11.1193 50 10 51.1193 10 52.5C10 53.8807 11.1193 55 12.5 55C13.8807 55 15 53.8807 15 52.5C15 51.1193 13.8807 50 12.5 50Z" fill="white"/>
<path d="M10 42.5C10 41.1193 11.1193 40 12.5 40C13.8807 40 15 41.1193 15 42.5C15 43.8807 13.8807 45 12.5 45C11.1193 45 10 43.8807 10 42.5Z" fill="white"/>
<path d="M12.5 30C11.1193 30 10 31.1193 10 32.5C10 33.8807 11.1193 35 12.5 35C13.8807 35 15 33.8807 15 32.5C15 31.1193 13.8807 30 12.5 30Z" fill="white"/>
<path d="M10 22.5C10 21.1193 11.1193 20 12.5 20C13.8807 20 15 21.1193 15 22.5C15 23.8807 13.8807 25 12.5 25C11.1193 25 10 23.8807 10 22.5Z" fill="white"/>
<path d="M12.5 10C11.1193 10 10 11.1193 10 12.5C10 13.8807 11.1193 15 12.5 15C13.8807 15 15 13.8807 15 12.5C15 11.1193 13.8807 10 12.5 10Z" fill="white"/>
<path d="M10 2.5C10 1.11929 11.1193 7.53523e-07 12.5 8.74228e-07C13.8807 9.94933e-07 15 1.11929 15 2.5C15 3.88071 13.8807 5 12.5 5C11.1193 5 10 3.88071 10 2.5Z" fill="white"/>
<path d="M2.50001 60C1.1193 60 7.11453e-06 61.1193 6.99382e-06 62.5C6.87312e-06 63.8807 1.1193 65 2.50001 65C3.88071 65 5.00001 63.8807 5.00001 62.5C5.00001 61.1193 3.88071 60 2.50001 60Z" fill="white"/>
<path d="M7.86805e-06 52.5C7.98876e-06 51.1193 1.1193 50 2.50001 50C3.88071 50 5.00001 51.1193 5.00001 52.5C5.00001 53.8807 3.88071 55 2.50001 55C1.1193 55 7.74734e-06 53.8807 7.86805e-06 52.5Z" fill="white"/>
<path d="M2.50001 40C1.1193 40 8.86298e-06 41.1193 8.74228e-06 42.5C8.62157e-06 43.8807 1.1193 45 2.50001 45C3.88072 45 5.00001 43.8807 5.00001 42.5C5.00001 41.1193 3.88072 40 2.50001 40Z" fill="white"/>
<path d="M9.61651e-06 32.5C9.73721e-06 31.1193 1.1193 30 2.50001 30C3.88072 30 5.00001 31.1193 5.00001 32.5C5.00001 33.8807 3.88072 35 2.50001 35C1.1193 35 9.4958e-06 33.8807 9.61651e-06 32.5Z" fill="white"/>
<path d="M2.50001 20C1.1193 20 1.06114e-05 21.1193 1.04907e-05 22.5C1.037e-05 23.8807 1.1193 25 2.50001 25C3.88072 25 5.00001 23.8807 5.00001 22.5C5.00001 21.1193 3.88072 20 2.50001 20Z" fill="white"/>
<path d="M1.1365e-05 12.5C1.14857e-05 11.1193 1.1193 10 2.50001 10C3.88072 10 5.00001 11.1193 5.00001 12.5C5.00001 13.8807 3.88072 15 2.50001 15C1.1193 15 1.12443e-05 13.8807 1.1365e-05 12.5Z" fill="white"/>
<path d="M2.50001 0C1.11931 -1.20704e-07 1.23599e-05 1.11929 1.22392e-05 2.5C1.21185e-05 3.88071 1.11931 5 2.50001 5C3.88072 5 5.00001 3.88071 5.00001 2.5C5.00001 1.11929 3.88072 1.20706e-07 2.50001 0Z" fill="white"/>
<path d="M110 32.5C110 31.1193 111.119 30 112.5 30C113.881 30 115 31.1193 115 32.5C115 33.8807 113.881 35 112.5 35C111.119 35 110 33.8807 110 32.5Z" fill="white"/>
</g>
</svg>
