<svg width="690" height="630" viewBox="0 0 690 630" fill="none" xmlns="http://www.w3.org/2000/svg">
<path opacity="0.15" d="M561.775 630C557.86 630 553.817 629.896 549.753 629.687C508.682 627.596 461.049 615.056 408.198 592.652C327.695 558.438 243.255 504.433 170.435 440.593C100.092 378.938 48.5326 315.193 21.3243 256.151C7.17511 225.48 0 196.638 0 170.44C0 132.067 18.1918 99.8499 54.0568 74.6653C110.378 35.1329 209.793 11.9653 357.994 3.70975C418.019 0.38665 478.341 0 518.45 0C534.43 0 549.849 0.0731501 561.532 0.1254L576.93 0.209C593.312 0.30305 608.784 0.386651 623.102 0.386651C651.983 0.386651 670.947 4.01281 681.043 11.495C683.447 13.1627 685.47 15.3097 686.981 17.7973C688.492 20.2849 689.458 23.0578 689.816 25.9369C692.557 47.9342 664.291 82.2416 628.5 125.672C591.672 170.356 545.838 225.992 522.175 284.418C511.359 311.076 505.856 336.773 505.856 360.766C505.856 449.079 564.622 514.496 603.503 557.78C625.949 582.766 642.162 600.824 638.236 612.998C634.416 624.911 611.536 630 561.775 630Z" fill="url(#paint0_linear)"/>
<defs>
<linearGradient id="paint0_linear" x1="0" y1="0" x2="808.122" y2="376.384" gradientUnits="userSpaceOnUse">
<stop stop-color="white" stop-opacity="0"/>
<stop offset="1" stop-color="white"/>
</linearGradient>
</defs>
</svg>
