<svg width="630" height="630" viewBox="0 0 630 630" fill="none" xmlns="http://www.w3.org/2000/svg">
<path opacity="0.1" d="M630 396.426C629.778 374.394 625.936 352.442 618.538 330.943C593.332 255.643 528.091 175.26 439.631 110.395C377.46 64.8359 309.892 31.4517 244.236 13.8561C209.926 4.65737 176.698 7.7237e-06 145.486 6.3594e-06C92.9824 4.06439e-06 56.344 7.18895 33.5098 21.9727C10.3792 36.9787 -2.62499e-06 60.0529 -4.23167e-06 96.8093C-5.20986e-06 119.188 3.57339 144.397 7.71022 173.588C12.7515 209.272 18.4897 249.71 18.4897 293.472C18.4897 301.414 18.297 309.763 17.9114 318.275C16.4139 351.718 12.2919 384.155 8.30331 415.491C4.03302 449.039 -2.10135e-05 480.732 -2.22371e-05 508.725C-2.434e-05 556.835 12.2029 586.769 39.5446 605.843C62.9718 622.125 97.6234 630 145.486 630C194.065 630.042 242.537 627.036 290.231 621.023C386.09 608.848 467.196 584.991 524.8 552.032C594.577 512.116 630 459.755 630 396.426Z" fill="url(#paint0_linear)"/>
<defs>
<linearGradient id="paint0_linear" x1="630" y1="-2.53364e-05" x2="-93.619" y2="137.572" gradientUnits="userSpaceOnUse">
<stop offset="0.424171" stop-color="white" stop-opacity="0"/>
<stop offset="1" stop-color="white"/>
</linearGradient>
</defs>
</svg>
